<?xml version="1.0" encoding="utf-8"?>
<!-- Svg Vector Icons : http://www.onlinewebfonts.com/icon -->
<!DOCTYPE svg PUBLIC "-//W3C//DTD SVG 1.1//EN" "http://www.w3.org/Graphics/SVG/1.1/DTD/svg11.dtd">
<svg version="1.1" xmlns="http://www.w3.org/2000/svg" xmlns:xlink="http://www.w3.org/1999/xlink" x="0px" y="0px" viewBox="0 0 256 256" enable-background="new 0 0 256 256" xml:space="preserve">
<metadata> Svg Vector Icons : http://www.onlinewebfonts.com/icon </metadata>
<g><g><path fill="#000000" d="M128,10C62.9,10,10,62.9,10,128c0,65.1,52.9,118,118,118c65.1,0,118-52.9,118-118C246,62.9,193.1,10,128,10z M128,214.7c-47.8,0-86.7-38.9-86.7-86.7c0-47.8,38.9-86.7,86.7-86.7c47.8,0,86.7,38.9,86.7,86.7C214.7,175.8,175.8,214.7,128,214.7z"/><path fill="#000000" d="M152.4,113.2L128,81.4l-24.4,31.8L64,101.6l21,64.5h86.1l21-64.5L152.4,113.2z M160.2,151.2H95.8l-8.9-27.4l22.3,6.5l18.8-24.5l18.8,24.5l22.3-6.5L160.2,151.2z"/></g></g>
</svg>