<?xml version="1.0" encoding="UTF-8"?>
<svg id="Layer_1" xmlns="http://www.w3.org/2000/svg" version="1.1" viewBox="0 0 841.9 595.3">
  <!-- Generator: Adobe Illustrator 29.7.1, SVG Export Plug-In . SVG Version: 2.1.1 Build 8)  -->
  <defs>
    <style>
      .st0 {
        fill: #fff;
      }
    </style>
  </defs>
  <g>
    <path class="st0" d="M283.9,332.9c-5,0-9.6-.8-13.8-2.5-4.2-1.7-7.9-4-11-7-3.1-3-5.5-6.6-7.2-10.7-1.7-4.1-2.6-8.6-2.6-13.4s.9-9.3,2.6-13.4c1.7-4.1,4.2-7.6,7.3-10.7,3.1-3,6.8-5.4,11-7,4.2-1.7,8.8-2.5,13.8-2.5s9.3.8,13.5,2.4c4.2,1.6,7.8,4,10.7,7.2l-4.4,4.4c-2.7-2.8-5.7-4.8-9-6-3.3-1.2-6.8-1.8-10.6-1.8s-7.6.7-11,2c-3.4,1.4-6.4,3.3-8.9,5.8-2.5,2.5-4.5,5.4-5.9,8.7-1.4,3.3-2.1,6.9-2.1,10.9s.7,7.6,2.1,10.9c1.4,3.3,3.4,6.2,5.9,8.7,2.5,2.5,5.5,4.4,8.9,5.8,3.4,1.4,7.1,2,11,2s7.3-.6,10.6-1.9c3.3-1.3,6.3-3.3,9-6l4.4,4.4c-2.9,3.2-6.5,5.6-10.7,7.3-4.2,1.6-8.8,2.5-13.6,2.5Z"/>
    <path class="st0" d="M321.7,332.3v-70.1h6.7v70.1h-6.7Z"/>
    <path class="st0" d="M350.5,271.8c-1.4,0-2.6-.5-3.5-1.4-.9-.9-1.4-2.1-1.4-3.4s.5-2.4,1.4-3.4c.9-.9,2.1-1.4,3.5-1.4s2.5.4,3.5,1.3c.9.9,1.4,2,1.4,3.3s-.5,2.6-1.4,3.5c-.9.9-2.1,1.4-3.5,1.4ZM347.1,332.3v-49.6h6.7v49.6h-6.7Z"/>
    <path class="st0" d="M397.8,282.3c4,0,7.6.8,10.6,2.3,3.1,1.5,5.4,3.9,7.2,7,1.7,3.1,2.6,7.1,2.6,11.9v28.8h-6.7v-28.1c0-5.2-1.3-9.2-3.9-11.9-2.6-2.7-6.3-4-11-4s-6.6.7-9.2,2.1c-2.6,1.4-4.6,3.5-6,6.1-1.4,2.7-2.1,5.9-2.1,9.7v26.1h-6.7v-49.6h6.4v13.6l-1-2.5c1.6-3.6,4.1-6.4,7.6-8.5,3.5-2,7.6-3.1,12.4-3.1Z"/>
    <path class="st0" d="M439.7,271.8c-1.4,0-2.6-.5-3.5-1.4-.9-.9-1.4-2.1-1.4-3.4s.5-2.4,1.4-3.4c.9-.9,2.1-1.4,3.5-1.4s2.5.4,3.5,1.3c.9.9,1.4,2,1.4,3.3s-.5,2.6-1.4,3.5c-.9.9-2.1,1.4-3.5,1.4ZM436.3,332.3v-49.6h6.7v49.6h-6.7Z"/>
    <path class="st0" d="M482.3,332.8c-4.9,0-9.3-1.1-13.2-3.3-3.9-2.2-6.9-5.2-9.1-9-2.2-3.8-3.3-8.2-3.3-13.1s1.1-9.4,3.3-13.1c2.2-3.8,5.2-6.7,9.1-8.9,3.9-2.1,8.3-3.2,13.2-3.2s8,.8,11.4,2.5c3.4,1.6,6.1,4.1,8,7.4l-5,3.4c-1.7-2.5-3.8-4.4-6.3-5.6-2.5-1.2-5.3-1.8-8.2-1.8s-6.7.8-9.5,2.4c-2.8,1.6-5.1,3.9-6.7,6.8-1.6,2.9-2.5,6.3-2.5,10.2s.8,7.3,2.5,10.2c1.6,2.9,3.9,5.1,6.7,6.8,2.8,1.6,6,2.4,9.5,2.4s5.7-.6,8.2-1.8c2.5-1.2,4.6-3,6.3-5.5l5,3.4c-2,3.2-4.6,5.7-8,7.3-3.4,1.7-7.2,2.5-11.4,2.5Z"/>
    <path class="st0" d="M516.3,332.3v-66.1h7v60.1h37v6h-44Z"/>
    <path class="st0" d="M590.8,332.8c-5.2,0-9.7-1.1-13.6-3.3-3.9-2.2-7-5.2-9.2-9-2.2-3.8-3.3-8.2-3.3-13.1s1.1-9.3,3.2-13c2.1-3.8,5-6.8,8.7-8.9,3.7-2.2,7.8-3.3,12.4-3.3s8.8,1.1,12.4,3.2c3.6,2.1,6.5,5.1,8.5,8.9,2.1,3.8,3.1,8.2,3.1,13.2s0,.6,0,1,0,.7,0,1.1h-43.2v-5h39.6l-2.6,2c0-3.6-.8-6.8-2.3-9.6-1.5-2.8-3.6-5-6.3-6.6-2.6-1.6-5.7-2.4-9.2-2.4s-6.5.8-9.2,2.4c-2.7,1.6-4.8,3.8-6.3,6.6-1.5,2.8-2.3,6.1-2.3,9.7v1c0,3.8.8,7.1,2.5,10,1.7,2.9,4,5.1,7,6.7,3,1.6,6.4,2.4,10.2,2.4s5.8-.5,8.5-1.6c2.6-1.1,4.9-2.7,6.8-4.9l3.8,4.3c-2.2,2.6-5,4.7-8.3,6-3.3,1.4-6.9,2.1-10.9,2.1Z"/>
    <path class="st0" d="M639.4,332.8c-3.7,0-6.9-.6-9.7-1.8-2.7-1.2-4.8-2.9-6.3-5.1-1.4-2.2-2.2-4.7-2.2-7.5s.6-4.9,1.8-7c1.2-2.1,3.2-3.8,6-5.1,2.8-1.3,6.6-1.9,11.3-1.9h17.1v5h-16.9c-4.8,0-8.1.9-10,2.5-1.9,1.7-2.8,3.8-2.8,6.3s1.1,5.1,3.3,6.8c2.2,1.7,5.3,2.6,9.3,2.6s7-.9,9.8-2.6c2.7-1.7,4.7-4.2,6-7.5l1.5,4.6c-1.3,3.3-3.4,5.9-6.6,7.8-3.1,2-7,2.9-11.8,2.9ZM656.5,332.3v-11l-.3-1.8v-18.3c0-4.2-1.2-7.5-3.5-9.7-2.4-2.3-5.9-3.4-10.5-3.4s-6.3.5-9.2,1.6c-2.9,1.1-5.4,2.5-7.4,4.3l-3-5c2.5-2.1,5.5-3.8,9.1-5,3.5-1.2,7.2-1.7,11.1-1.7,6.4,0,11.4,1.6,14.9,4.8,3.5,3.2,5.2,8,5.2,14.5v30.8h-6.4Z"/>
    <path class="st0" d="M700.9,332.8c-4.7,0-9-1.1-12.7-3.2-3.7-2.1-6.7-5.1-8.8-8.9-2.1-3.8-3.2-8.2-3.2-13.2s1.1-9.4,3.2-13.2c2.1-3.8,5.1-6.7,8.8-8.8,3.7-2.1,8-3.2,12.7-3.2s8.2,1,11.7,2.9c3.4,2,6.2,4.8,8.2,8.5,2,3.7,3.1,8.3,3.1,13.7s-1,9.9-3,13.7c-2,3.8-4.7,6.7-8.2,8.6-3.4,2-7.4,3-11.8,3ZM701.3,326.8c3.5,0,6.7-.8,9.5-2.4,2.8-1.6,5-3.9,6.6-6.8,1.6-2.9,2.4-6.3,2.4-10.2s-.8-7.3-2.4-10.2c-1.6-2.9-3.8-5.1-6.6-6.8-2.8-1.6-6-2.4-9.5-2.4s-6.6.8-9.3,2.4c-2.8,1.6-5,3.9-6.6,6.8-1.6,2.9-2.5,6.3-2.5,10.2s.8,7.2,2.5,10.2,3.8,5.2,6.6,6.8c2.8,1.6,5.9,2.4,9.3,2.4ZM720,332.3v-14.9l.7-10-.9-10v-35.1h6.7v70.1h-6.4Z"/>
  </g>
  <path class="st0" d="M220.8,349.9h-73.7v-32.3h-30.7v-72.4h104.4v37h-66.9v28.6h66.9v39ZM153.9,343.2h60.2v-25.5h-60.2v25.5ZM123.2,310.9h24v-35.4h66.9v-23.5h-90.9v58.9Z"/>
</svg>