<?xml version="1.0" encoding="UTF-8"?>
<svg id="Layer_1" xmlns="http://www.w3.org/2000/svg" xmlns:xlink="http://www.w3.org/1999/xlink" version="1.1" viewBox="0 0 841.9 595.3">
  <!-- Generator: Adobe Illustrator 29.7.1, SVG Export Plug-In . SVG Version: 2.1.1 Build 8)  -->
  <defs>
    <style>
      .st0 {
        fill: #1f1634;
      }

      .st1 {
        fill: url(#New_Gradient_Swatch_copy_31);
      }
    </style>
    <linearGradient id="New_Gradient_Swatch_copy_31" data-name="New Gradient Swatch copy 31" x1="512.2" y1="349.7" x2="393" y2="97.7" gradientUnits="userSpaceOnUse">
      <stop offset="0" stop-color="#4f80ff"/>
      <stop offset=".5" stop-color="#2bd2ff"/>
      <stop offset="1" stop-color="#2ffd8a"/>
    </linearGradient>
  </defs>
  <g>
    <path class="st0" d="M191.2,433.3c-5.6,0-10.8-.9-15.6-2.8-4.8-1.9-8.9-4.5-12.4-7.9-3.5-3.4-6.2-7.4-8.2-12-2-4.6-2.9-9.7-2.9-15.1s1-10.5,2.9-15.1c2-4.6,4.7-8.6,8.2-12,3.5-3.4,7.7-6.1,12.4-7.9,4.8-1.9,9.9-2.8,15.6-2.8s10.5.9,15.2,2.7c4.8,1.8,8.8,4.5,12,8.2l-5,5c-3.1-3.1-6.4-5.4-10.1-6.8-3.7-1.4-7.7-2.1-11.9-2.1s-8.6.8-12.5,2.3c-3.8,1.5-7.2,3.7-10,6.5-2.8,2.8-5.1,6.1-6.7,9.8-1.6,3.7-2.4,7.8-2.4,12.3s.8,8.6,2.4,12.3c1.6,3.7,3.8,7,6.7,9.8,2.8,2.8,6.2,5,10,6.5,3.8,1.5,8,2.3,12.5,2.3s8.2-.7,11.9-2.1c3.7-1.4,7.1-3.7,10.1-6.8l5,5c-3.3,3.6-7.3,6.4-12,8.2-4.8,1.8-9.9,2.8-15.4,2.8Z"/>
    <path class="st0" d="M233.8,432.6v-79.1h7.6v79.1h-7.6Z"/>
    <path class="st0" d="M266.3,364.3c-1.6,0-2.9-.5-3.9-1.6-1.1-1.1-1.6-2.3-1.6-3.8s.5-2.8,1.6-3.8c1.1-1,2.4-1.5,3.9-1.5s2.9.5,3.9,1.5c1.1,1,1.6,2.2,1.6,3.7s-.5,2.9-1.5,3.9c-1,1.1-2.4,1.6-4,1.6ZM262.5,432.6v-56h7.6v56h-7.6Z"/>
    <path class="st0" d="M319.7,376.1c4.5,0,8.5.9,12,2.6s6.1,4.4,8.1,7.9c2,3.6,2.9,8,2.9,13.4v32.5h-7.6v-31.8c0-5.9-1.5-10.4-4.4-13.4-3-3-7.1-4.5-12.4-4.5s-7.4.8-10.4,2.4c-2.9,1.6-5.2,3.9-6.8,6.9-1.6,3-2.4,6.7-2.4,10.9v29.4h-7.6v-56h7.3v15.4l-1.2-2.9c1.8-4.1,4.6-7.2,8.5-9.5,3.9-2.3,8.6-3.5,14-3.5Z"/>
    <path class="st0" d="M367.1,364.3c-1.6,0-2.9-.5-3.9-1.6-1.1-1.1-1.6-2.3-1.6-3.8s.5-2.8,1.6-3.8c1.1-1,2.4-1.5,3.9-1.5s2.9.5,3.9,1.5c1.1,1,1.6,2.2,1.6,3.7s-.5,2.9-1.5,3.9c-1,1.1-2.4,1.6-4,1.6ZM363.2,432.6v-56h7.6v56h-7.6Z"/>
    <path class="st0" d="M415.1,433.2c-5.5,0-10.5-1.2-14.9-3.7-4.4-2.5-7.8-5.8-10.3-10.1-2.5-4.3-3.7-9.2-3.7-14.8s1.2-10.6,3.7-14.8c2.5-4.3,5.9-7.6,10.3-10,4.4-2.4,9.3-3.6,14.9-3.6s9.1.9,12.9,2.8c3.8,1.8,6.9,4.6,9.1,8.3l-5.6,3.8c-1.9-2.8-4.3-4.9-7.1-6.3-2.8-1.4-5.9-2-9.3-2s-7.6.9-10.8,2.7c-3.2,1.8-5.7,4.4-7.6,7.6-1.8,3.3-2.8,7.1-2.8,11.5s.9,8.2,2.8,11.5c1.8,3.3,4.4,5.8,7.6,7.6,3.2,1.8,6.8,2.7,10.8,2.7s6.4-.7,9.3-2c2.8-1.4,5.2-3.4,7.1-6.2l5.6,3.8c-2.2,3.6-5.2,6.4-9.1,8.3-3.8,1.9-8.1,2.8-12.9,2.8Z"/>
    <path class="st0" d="M453.5,432.6v-74.6h7.9v67.8h41.8v6.8h-49.7Z"/>
    <path class="st0" d="M537.6,433.2c-5.8,0-10.9-1.2-15.4-3.7-4.4-2.5-7.9-5.8-10.3-10.1-2.5-4.3-3.7-9.2-3.7-14.8s1.2-10.4,3.6-14.7c2.4-4.3,5.7-7.6,9.8-10.1,4.2-2.5,8.8-3.7,14-3.7s9.9,1.2,14,3.6c4.1,2.4,7.3,5.7,9.6,10,2.3,4.3,3.5,9.3,3.5,14.9s0,.7,0,1.1,0,.8,0,1.2h-48.7v-5.6h44.7l-3,2.2c0-4-.9-7.7-2.6-10.8-1.7-3.2-4.1-5.6-7.1-7.4-3-1.8-6.4-2.7-10.3-2.7s-7.3.9-10.3,2.7c-3.1,1.8-5.4,4.3-7.1,7.5-1.7,3.2-2.6,6.9-2.6,11v1.2c0,4.3.9,8,2.8,11.2,1.9,3.2,4.5,5.8,7.9,7.6,3.4,1.8,7.2,2.7,11.6,2.7s6.6-.6,9.5-1.8c2.9-1.2,5.5-3.1,7.6-5.5l4.3,4.9c-2.5,3-5.6,5.3-9.3,6.8-3.7,1.6-7.8,2.3-12.3,2.3Z"/>
    <path class="st0" d="M592.4,433.2c-4.2,0-7.8-.7-10.9-2.1-3.1-1.4-5.5-3.3-7.1-5.8-1.6-2.5-2.5-5.3-2.5-8.5s.7-5.6,2.1-7.9c1.4-2.4,3.7-4.3,6.8-5.8,3.2-1.5,7.4-2.2,12.7-2.2h19.3v5.7h-19.1c-5.4,0-9.2,1-11.2,2.9-2.1,1.9-3.1,4.3-3.1,7.1s1.2,5.8,3.7,7.7,6,2.9,10.4,2.9,7.9-1,11-2.9c3.1-2,5.3-4.8,6.8-8.5l1.7,5.2c-1.4,3.7-3.9,6.6-7.4,8.8-3.5,2.2-7.9,3.3-13.3,3.3ZM611.7,432.6v-12.4l-.3-2v-20.7c0-4.8-1.3-8.4-4-11-2.7-2.6-6.6-3.8-11.9-3.8s-7.1.6-10.3,1.8c-3.3,1.2-6,2.8-8.3,4.8l-3.4-5.7c2.8-2.4,6.3-4.3,10.2-5.6,4-1.3,8.2-2,12.6-2,7.3,0,12.8,1.8,16.8,5.4,3.9,3.6,5.9,9,5.9,16.4v34.8h-7.3Z"/>
    <path class="st0" d="M661.8,433.2c-5.3,0-10.1-1.2-14.3-3.6-4.2-2.4-7.6-5.8-10-10.1-2.4-4.3-3.6-9.3-3.6-14.9s1.2-10.7,3.6-14.9c2.4-4.3,5.7-7.6,10-10,4.2-2.4,9-3.6,14.3-3.6s9.3,1.1,13.2,3.3c3.9,2.2,7,5.4,9.3,9.6,2.3,4.2,3.5,9.4,3.5,15.5s-1.1,11.2-3.4,15.5c-2.3,4.3-5.3,7.5-9.2,9.8-3.9,2.2-8.3,3.4-13.3,3.4ZM662.4,426.5c4,0,7.6-.9,10.7-2.7,3.2-1.8,5.6-4.4,7.5-7.7,1.8-3.3,2.7-7.1,2.7-11.5s-.9-8.2-2.7-11.5c-1.8-3.3-4.3-5.8-7.5-7.6-3.2-1.8-6.7-2.7-10.7-2.7s-7.4.9-10.6,2.7c-3.1,1.8-5.6,4.4-7.5,7.6-1.8,3.3-2.8,7.1-2.8,11.5s.9,8.2,2.8,11.5c1.8,3.3,4.3,5.9,7.5,7.7,3.1,1.8,6.6,2.7,10.6,2.7ZM683.5,432.6v-16.8l.7-11.3-1.1-11.3v-39.7h7.6v79.1h-7.2Z"/>
  </g>
  <path class="st1" d="M531.8,304.7h-152.3v-66.7h-63.6V88.3h215.8v76.5h-138.3v59.2h138.3v80.6ZM393.5,290.7h124.4v-52.7h-124.4v52.7ZM330,224h49.6v-73.1h138.3v-48.6h-187.9v121.8Z"/>
</svg>