<?xml version="1.0" encoding="UTF-8"?>
<svg id="Layer_1" data-name="Layer 1" xmlns="http://www.w3.org/2000/svg" viewBox="0 0 13.85 12.68">
  <defs>
    <style>
      .cls-1 {
        fill: none;
        stroke: #333;
        stroke-linecap: round;
        stroke-linejoin: round;
        stroke-width: .87px;
      }

      .cls-2 {
        fill: #333;
      }
    </style>
  </defs>
  <g>
    <path class="cls-1" d="M4.37,11.33c.91.57,1.99.91,3.15.91,3.26,0,5.9-2.64,5.9-5.9,0-3.26-2.64-5.9-5.9-5.9-3.24,0-5.88,2.62-5.9,5.85"/>
    <polygon class="cls-2" points="0 6.05 2.07 8.63 3.27 5.55 0 6.05"/>
  </g>
  <g>
    <path class="cls-1" d="M7.24,3.5h.5c.72,0,1.31.59,1.31,1.31v.96h-3.13v-.96c0-.72.59-1.31,1.31-1.31Z"/>
    <rect class="cls-1" x="5.28" y="5.66" width="4.47" height="3.52" rx=".77" ry=".77"/>
    <path class="cls-2" d="M7.92,7.16c0-.22-.18-.4-.4-.4s-.4.18-.4.4c0,.15.08.27.2.34v.68c0,.1.08.17.17.17h.07c.1,0,.17-.08.17-.17v-.68c.11-.07.19-.19.19-.33Z"/>
  </g>
</svg>